<?xml version="1.0" encoding="UTF-8"?>
<svg id="Layer_1" xmlns="http://www.w3.org/2000/svg" version="1.1" viewBox="0 0 1200 160">
  <!-- Generator: Adobe Illustrator 29.2.0, SVG Export Plug-In . SVG Version: 2.1.0 Build 108)  -->
  <defs>
    <style>
      .st0, .st1 {
        fill: #005dab;
      }

      .st1 {
        fill-rule: evenodd;
      }
    </style>
  </defs>
  <g>
    <path class="st0" d="M262.4,74.4c-19.6-19.5-41-40.8-60.6-60.3-2.9-2.8-7.6-2.8-10.4,0-30.6,30.7-85.2,85.6-85.2,85.6,0,0-20.7-20.6-34.7-34.5-2.9-2.8-7.5-2.8-10.4,0-2.8,2.9-2.9,7.5,0,10.4,14,13.9,25.9,25.9,39.8,39.8,2.9,2.8,7.5,2.8,10.4,0,30.6-30.7,85.3-85.6,85.3-85.6l50.3,50-49.9,50.1-34.7-34.5c-2.9-2.8-7.5-2.8-10.4,0-2.8,2.9-2.8,7.5,0,10.4,0,0,27.7,27.6,39.8,39.5,2.9,2.8,7.6,2.9,10.4,0,19.4-19.5,40.9-41.1,60.2-60.6,2.8-2.8,2.8-7.5,0-10.4"/>
    <path class="st0" d="M71.9,12.9c-20.2,20.2-41.7,41.9-61.8,62.2-2.8,2.8-2.8,7.5,0,10.4,19.6,19.5,41.1,40.9,60.7,60.5,2.9,2.8,7.5,2.8,10.4,0,2.8-2.9,2.8-7.5,0-10.4l-55.5-55.2,50-50.3s19.3,19.2,34.5,34.4c2.9,2.8,7.6,2.8,10.4,0,2.8-2.9,2.8-7.5-.2-10.4h0c-15.3-15.1-24.5-24.3-39.8-39.5-2.9-2.8-7.5-2.9-10.4,0"/>
  </g>
  <g>
    <path class="st0" d="M719.2,49.9h-52.9s-10.8,66.4-10.8,66.4h11.4s2.4-14,2.4-14c.2-1.2,1.1-2.6,2.1-3.5,1-.8,2.5-1.4,3.8-1.5h34.1c16,0,25.6-9.8,27.9-23.3,2.6-16.8-4.3-24.1-18-24.1h0ZM724.3,73.7c-.8,4.5-5.6,11-13.2,11h-39c0-.1,3.8-22.3,3.8-22.4h39.9c6.4,0,9.8,3.5,8.4,11.4h0Z"/>
    <path class="st1" d="M601.3,116.1c-5.5,0-11.1.3-16.4-.6-16.7-2.7-23.9-17.5-18.6-36.8,5-17.9,15.4-28.2,31.7-29.6,10.5-1,21.1-.9,31.2.2,16.5,1.8,23.9,15.5,19.8,34.3-4.4,20.3-17.7,32.3-35.9,32.5-3.9,0-7.9,0-11.9,0,0-.2,0,0,0,0ZM603.7,104.2c5-.3,10-.1,15.1-.9,9.4-1.5,16.6-10,18.4-21,1.9-11.4-2.5-20-11.8-20.7-9.3-.7-18.8-.7-28.3,0s-17,9-19.3,20.3c-2.3,11.3,1.9,19.8,11,21.3,4.8.9,9.9.8,14.9,1.1Z"/>
    <path class="st1" d="M1051.9,116.8c-5.5,0-11.1.3-16.4-.6-16.6-2.7-23.9-17.5-18.6-36.7,5-17.9,15.4-28.2,31.7-29.6,10.5-1,21.1-.9,31.2.2,16.5,1.8,23.9,15.5,19.8,34.3-4.4,20.3-17.7,32.3-35.9,32.5-3.9,0-7.9,0-11.9,0,0,0,0,.2,0,0h0ZM1054.4,104.8c5-.2,10-.1,15.1-.9,9.4-1.5,16.6-10,18.4-21,1.9-11.4-2.5-20-11.8-20.7-9.3-.7-18.8-.7-28.3,0-9.5.6-17,9-19.3,20.3-2.3,11.3,1.9,19.8,11,21.3,4.8.9,9.9.8,14.9,1.1Z"/>
    <path class="st0" d="M818.9,97.6c-.9,5.2-3.5,9.6-7.7,13.3-4.3,3.7-9,5.5-14.1,5.5h-37.3c-5.1,0-9.3-1.9-12.3-5.5-3.1-3.7-4.1-8-3.3-13.3l8-48.4h11.7s-7.5,44.7-7.5,44.7c-.5,2.8.1,5.2,1.8,7.2,1.7,2,3.9,3,6.7,3h31.2c2.8,0,5.3-1,7.7-3,2.3-2,3.7-4.4,4.2-7.2l7.5-44.7h11.4s-8.1,48.4-8.1,48.4Z"/>
    <path class="st0" d="M999.7,116.3h-11.3s11.2-66.7,11.2-66.7h11.3s-11.2,66.7-11.2,66.7Z"/>
    <path class="st0" d="M1162.5,113.3c2.1,2.9,4.1,3.4,6.8,3.4h11.8s10.9-66.9,10.9-66.9h-11.4s-8.8,53.9-8.8,53.9c-7.9-10.7-34.3-46.7-37.1-50.6-2.1-2.9-4.1-3.4-6.8-3.4h-11.8s-10.9,66.9-10.9,66.9h11.4s8.9-53.9,8.9-53.9c7.9,10.7,34.2,46.7,37,50.6Z"/>
    <path class="st0" d="M373.2,62c6.9,0,12.2-4.6,13.5-12.4h-58q-11.6,0-13.6,12.4h58.1Z"/>
    <path class="st0" d="M880.6,116.4c6.9,0,12.2-4.6,13.5-12.4h-49.5c-1.2,0-2.2-.5-2.9-1.4s-1-2-.7-3.3l8.4-49.8h-11.7s-9.4,56.9-9.4,56.9c-1.2,6.9.7,9.9,7.6,10h44.9c0,0,0,0,0,0Z"/>
    <path class="st0" d="M984.9,49.6c-1.2,7.3-6.3,11.7-12.7,11.7h-.3s-39.8,0-39.8,0c-5.5,0-8.7,2.9-9.5,7.7-1.1,6.4,1.1,7.8,6.9,7.8h36.2c5.1,0,9.2,1.9,12.3,5.6,3.1,3.7,3.8,9.9,3,15s-3.5,9.6-7.7,13.3c-4.3,3.7-9,5.5-14.1,5.5h-56c1.2-6.7,3.5-10.4,9.6-11.7h48.4c5,.1,7.9-4.9,8.3-7.4.7-4.2-.1-8.5-5.7-8.5h-37.3c-11.3,0-17.3-8.6-15.4-19.8,1.7-10.4,11.5-19.1,21.9-19.1l52-.2h0Z"/>
    <path class="st0" d="M368.3,115.9h-52.6c-7.4,0-8.7-4-7.8-9.1l5-30.2h57.4c-.5,7-6.4,12.5-13.5,12.4h-34.3s-2.5,14.5-2.5,14.5h58.1s0,0,0,0c-.6,6.9-6.4,12.4-13.5,12.4h3.8Z"/>
    <path class="st0" d="M451.2,49.6h-52.9s-10.8,66.4-10.8,66.4h11.4s2.4-14,2.4-14c.2-1.2,1.1-2.6,2.1-3.5,1-.8,2.5-1.4,3.8-1.4h34.1c16,0,25.6-9.8,27.9-23.3,2.6-16.9-4.3-24.2-18-24.2ZM456.3,73.4c-.8,4.5-5.6,11-13.2,11h-39c0-.1,3.8-22.3,3.8-22.4h39.9c6.4,0,9.7,3.5,8.4,11.4h0Z"/>
    <path class="st0" d="M537.3,49.7h-52.9s-10.8,66.4-10.8,66.4h11.5s2.4-14,2.4-14c.2-1.2,1.1-2.6,2.1-3.5,1-.8,2.5-1.4,3.8-1.4h26.7s14.3,19,14.3,19h10.4c1.5,0,2.3-1.7,1.4-2.9l-12.6-16.7h0c12.2-2.2,19.7-11.1,21.6-22.7,2.7-16.8-4.3-24.2-17.9-24.2ZM542.4,73.5c-1.1,6.3-5.6,11-13.2,11h-39c0-.1,3.8-22.3,3.8-22.4h39.9c6.4,0,9.8,3.6,8.4,11.4h0Z"/>
  </g>
</svg>